<svg width="128" height="128" viewBox="0 0 128 128" fill="none" xmlns="http://www.w3.org/2000/svg">
<path fill-rule="evenodd" clip-rule="evenodd" d="M113.36 28.2L70.54 3.74C66.48 1.42 61.52 1.42 57.46 3.74L14.64 28.2C10.54 30.54 8 34.92 8 39.64V88.34C8 93.08 10.54 97.44 14.64 99.8L57.46 124.26C61.52 126.58 66.48 126.58 70.54 124.26L113.36 99.8C117.46 97.46 120 93.08 120 88.34V39.64C120 34.9 117.46 30.54 113.36 28.2ZM16.6301 96.3302C13.7652 94.6786 12 91.6376 12 88.34V39.64C12 36.3544 13.7716 33.3012 16.6227 31.674L59.444 7.21327C62.2743 5.59598 65.7252 5.59568 68.5554 7.21297L111.376 31.6733C114.23 33.3022 116 36.3377 116 39.64V88.34C116 91.649 114.225 94.7005 111.377 96.326L68.556 120.787C65.7257 122.404 62.2748 122.404 59.4446 120.787L16.6355 96.3333C16.6337 96.3323 16.6319 96.3312 16.6301 96.3302Z" fill="#00A88E"/>
<path d="M97.82 72.58C97.8333 70.5151 97.4107 68.4705 96.58 66.58C97.8049 64.4205 98.1828 61.8826 97.64 59.46C97.2234 57.1171 95.9992 54.9941 94.18 53.46C94.18 53.14 94.18 52.82 94.32 52.48C94.8437 49.3641 94.4331 46.1629 93.14 43.28C92.5132 41.8992 91.6173 40.6573 90.5046 39.627C89.3919 38.5968 88.0849 37.7989 86.66 37.28H86.48C86.1892 36.3154 85.7086 35.4186 85.0663 34.6424C84.4241 33.8662 83.6331 33.2262 82.74 32.76C81.8354 32.2985 80.8512 32.0134 79.84 31.92L79.72 31.62C79.1389 30.1445 78.1885 28.8429 76.96 27.84C75.3734 26.5868 73.4015 25.9224 71.38 25.96C70.1267 26.0048 68.8951 26.3004 67.758 26.8294C66.621 27.3585 65.6015 28.1101 64.76 29.04C64.4648 29.3324 64.1844 29.6395 63.92 29.96C63.6623 29.6397 63.3887 29.3327 63.1 29.04C62.257 28.1119 61.2373 27.3614 60.1006 26.8325C58.9638 26.3036 57.7329 26.007 56.48 25.96C54.458 25.9191 52.485 26.5838 50.9 27.84C49.6648 28.8411 48.7076 30.1427 48.12 31.62L48 31.92C46.9897 32.0181 46.0063 32.3029 45.1 32.76C43.3949 33.6438 42.0925 35.1465 41.46 36.96H41.28C39.8502 37.4697 38.5387 38.2643 37.4249 39.2956C36.311 40.327 35.4181 41.5736 34.8 42.96C33.5001 45.8408 33.0826 49.0421 33.6 52.16C33.6 52.5 33.6 52.82 33.76 53.14C31.9382 54.6719 30.7134 56.7959 30.3 59.14C29.7512 61.5602 30.1219 64.0979 31.34 66.26C30.5251 68.1549 30.1098 70.1974 30.12 72.26C30.2169 75.0123 31.3616 77.6237 33.32 79.56L33.58 79.82C33.58 80.06 33.44 80.3 33.38 80.54C33.005 82.0749 32.9681 83.6731 33.272 85.2236C33.5759 86.7742 34.2133 88.2402 35.14 89.52C35.9444 90.6239 36.977 91.5417 38.1676 92.2112C39.3582 92.8807 40.6789 93.2861 42.04 93.4H42.48C43.5573 95.2816 45.1083 96.8484 46.979 97.9446C48.8496 99.0409 50.9746 99.6283 53.1427 99.6485C55.3107 99.6688 57.4463 99.1211 59.3371 98.0599C61.2278 96.9988 62.8078 95.4612 63.92 93.6C65.0265 95.4363 66.5903 96.9544 68.4586 98.006C70.327 99.0576 72.4361 99.6068 74.58 99.6C76.7713 99.622 78.9282 99.0544 80.8247 97.9566C82.7213 96.8588 84.2877 95.2711 85.36 93.36H85.8C87.1611 93.2461 88.4818 92.8407 89.6724 92.1712C90.863 91.5017 91.8956 90.5839 92.7 89.48C93.6287 88.2051 94.2675 86.7425 94.5715 85.1948C94.8755 83.647 94.8375 82.0515 94.46 80.52C94.46 80.26 94.34 80.02 94.28 79.78L94.52 79.52C96.4841 77.5857 97.6358 74.9747 97.74 72.22M61.74 89.34C60.72 91.34 58.6 95.64 53.28 95.64C51.5849 95.6468 49.9248 95.1583 48.5036 94.2345C47.0823 93.3107 45.9619 91.9919 45.28 90.44L44.68 89.36H43.44C43.0736 89.3786 42.7064 89.3786 42.34 89.36C41.5501 89.2926 40.7839 89.0559 40.0937 88.6659C39.4035 88.2759 38.8053 87.7419 38.34 87.1C37.7539 86.279 37.3521 85.341 37.1623 84.3503C36.9724 83.3596 36.9989 82.3395 37.24 81.36C37.3567 80.8625 37.5105 80.3745 37.7 79.9L38.22 78.6L37.14 77.66C36.8112 77.3766 36.4974 77.0762 36.2 76.76C34.9607 75.5495 34.2067 73.9277 34.08 72.2C34.052 70.5262 34.415 68.8689 35.14 67.36C35.14 67.22 35.28 67.1 35.34 66.98L36 65.84L35.22 64.78C35.0954 64.6283 34.9818 64.4679 34.88 64.3C34.0628 62.9585 33.8043 61.35 34.16 59.82C34.4176 58.2134 35.3024 56.7747 36.62 55.82C36.6958 55.7721 36.7762 55.7319 36.86 55.7L38.2 54.98L37.88 53.5C37.76 52.92 37.64 52.26 37.54 51.5C37.1238 49.1648 37.4019 46.7587 38.34 44.58C39.1367 42.7516 40.6253 41.3133 42.48 40.58L43.3 40.38L44.62 40.18L44.98 38.66C45.0976 38.1284 45.3258 37.6275 45.6497 37.1899C45.9736 36.7523 46.386 36.3878 46.86 36.12C47.6114 35.7542 48.4468 35.5954 49.28 35.66L50.98 35.8L51.38 34.14C51.4831 33.7306 51.6168 33.3294 51.78 32.94C52.1056 32.0813 52.6503 31.3228 53.36 30.74C54.239 30.0585 55.3283 29.7048 56.44 29.74C57.9137 29.8846 59.2714 30.603 60.22 31.74C60.6344 32.1362 61.0095 32.5715 61.34 33.04C61.4534 33.1771 61.5538 33.3244 61.64 33.48V33.62V51.82H58V36.58H56V46H52V43H50V48H56V52H52V54H46V49H44V56H52V60H46V64H38.58V66H48V62H52V68H46V80H42V82H48V78H52V76H48V70H52V72L56 76H58V82H52V91.42H54V84H60V76H61.88V89.6L61.74 89.34ZM57.58 71.64L55.92 69.98V55.64H70.26L71.92 57.3V71.64H57.58ZM92.46 67.02C92.5389 67.1328 92.6059 67.2534 92.66 67.38C93.4058 68.8824 93.7763 70.5431 93.74 72.22C93.6153 73.9524 92.8529 75.5771 91.6 76.78C91.3073 77.1008 90.9932 77.4015 90.66 77.68L89.6 78.62L90.12 79.92C90.3031 80.3949 90.4502 80.883 90.56 81.38C90.8093 82.3576 90.8418 83.378 90.6553 84.3695C90.4687 85.3611 90.0676 86.2998 89.48 87.12C89.0128 87.76 88.4142 88.2927 87.7243 88.6825C87.0345 89.0722 86.2693 89.3101 85.48 89.38C85.1202 89.3985 84.7598 89.3985 84.4 89.38H83.16L82.54 90.46C81.8705 91.9963 80.7696 93.3053 79.3709 94.2283C77.9722 95.1513 76.3358 95.6486 74.66 95.66C69.32 95.66 67.2 91.4 66.14 89.26V75.66H70V81.66H74V89.08H76V79.66H72V75.66H76V73.66H80V81.66H86V79.66H82V73.66H86V71.66H76V67.66H84V63.66H89.42V61.66H82V65.66H76V59.66H82V51.66H86V49.66H80V57.66H76V55.66L72 51.66H70V47.66H77V45.66H74V36.58H72V46H68V52H66.14V33.82V33.66C66.2262 33.5044 66.3266 33.3571 66.44 33.22C66.7872 32.7585 67.1612 32.3177 67.56 31.9C68.5408 30.8088 69.8986 30.1299 71.36 30C72.4713 29.9682 73.5594 30.3214 74.44 31C75.1391 31.5846 75.6821 32.3337 76.02 33.18C76.1773 33.5765 76.3043 33.9843 76.4 34.4L76.8 36.06L78.5 35.92C79.3397 35.8548 80.1817 36.0135 80.94 36.38C81.4141 36.6501 81.8252 37.0181 82.146 37.4595C82.4667 37.9009 82.6896 38.4056 82.8 38.94L83.18 40.44L84.48 40.64C84.7571 40.69 85.031 40.7568 85.3 40.84C87.1563 41.5782 88.6496 43.0141 89.46 44.84C90.3792 47.0237 90.6567 49.4242 90.26 51.76C90.26 52.5 90.04 53.16 89.92 53.76L89.58 55.24L90.94 55.96C91.022 55.9959 91.1021 56.036 91.18 56.08C91.8295 56.5538 92.3793 57.1509 92.798 57.8372C93.2166 58.5236 93.496 59.2857 93.62 60.08C93.9817 61.6074 93.7303 63.2157 92.92 64.56C92.8162 64.7266 92.7027 64.8868 92.58 65.04L91.78 66.1L92.46 67.02Z" fill="#575756"/>
<path d="M70 70H58V58H70V70ZM60 68H68V60H60V68Z" fill="#575756"/>
</svg>
