<svg width="158" height="31" viewBox="0 0 158 31" fill="none" xmlns="http://www.w3.org/2000/svg">
<path d="M71.1814 16.0739C71.1814 22.051 67.5273 24.8766 62.9537 24.8766H60.159V21.2908H62.7361C65.4953 21.2908 67.3341 19.806 67.3341 16.075C67.3341 12.344 65.5953 10.5323 62.655 10.5323C59.7148 10.5323 57.8006 12.2709 57.8006 16.003V31H53.9887V7.4163H57.8006V9.44523H58.3446C59.6149 7.74319 61.4936 6.98192 63.4534 6.98192C67.6638 6.98192 71.1814 10.0248 71.1814 16.075V16.0739ZM46.133 14.5159L43.5925 14.2621C41.5961 14.0815 40.5435 13.5374 40.5435 12.3784C40.5435 11.0021 41.887 10.2054 43.8101 10.2054C45.7332 10.2054 47.0768 11.1473 47.1856 12.487H50.852C50.7065 9.08177 48.0572 6.98081 43.8468 6.98081C39.6363 6.98081 36.7327 9.22693 36.7327 12.5235C36.7327 15.2772 38.4749 17.0512 42.4322 17.4501L45.0093 17.7039C46.5705 17.8491 47.6231 18.1748 47.6231 19.6597C47.6231 21.0005 46.6426 21.9778 44.0655 21.9778C41.6927 21.9778 40.5224 20.903 40.1126 19.4625H36.1465C36.5417 22.7557 39.3132 25.311 44.0655 25.311C48.5302 25.311 51.4338 22.9563 51.4338 19.4791C51.4338 16.3997 49.4007 14.8428 46.1341 14.5159H46.133ZM85.9425 19.4625C85.344 20.8332 83.9161 21.8692 81.8886 21.8692C79.0938 21.8692 77.0241 20.0575 77.0241 16.1459C77.0241 12.2343 78.9484 10.3494 81.9241 10.3494C84.5734 10.3494 86.0979 11.9429 86.2434 14.3342H79.3825V17.0878H89.982V15.276C89.982 10.2408 86.642 6.98081 81.8875 6.98081C77.4594 6.98081 73.2123 9.98709 73.2123 16.1459C73.2123 22.3047 77.4594 25.311 81.8875 25.311C85.938 25.311 88.8261 22.8211 89.7232 19.4625H85.9414H85.9425ZM25.8601 6.98192C21.6863 6.98192 18.564 9.15601 18.2009 12.4881H22.3026C22.5935 11.257 23.7183 10.3517 25.8601 10.3517C28.6194 10.3517 29.5265 11.801 29.5265 13.5751V19.5522C27.9654 21.3274 26.1511 22.1607 24.3356 22.1607C22.5202 22.1607 21.1411 21.2554 21.1411 19.6253C21.1411 17.9953 22.1571 17.09 24.118 17.09H27.167V14.3364H24.0092C19.6533 14.3364 17.2216 16.5105 17.2216 19.8425C17.2216 22.9574 19.5811 25.3121 23.4651 25.3121C25.6425 25.3121 27.5667 24.4434 28.9825 23.3918H29.5265V24.8766H33.3384V13.2117C33.3384 8.90115 30.3982 6.98081 25.8612 6.98081L25.8601 6.98192ZM0 24.8766H3.81184V0.968262H0V24.8766ZM16.008 7.4163H11.3622L5.80826 14.6976V16.9803L11.5066 24.8766H16.2256L9.54682 15.8201L16.008 7.4163ZM153.788 7.4163L150.667 14.3353C149.904 16.0019 149.179 17.6319 148.962 18.7189H148.417C148.199 17.6319 147.437 16.0384 146.674 14.3718L143.553 7.4163H139.343L146.676 23.1015L143.046 30.9989H147.111L158 7.4163H153.79H153.788ZM138.499 7.4163H133.853L128.299 14.6976V16.9803L133.999 24.8766H138.718L132.039 15.8201L138.5 7.4163H138.499ZM114.636 14.5159L112.096 14.2621C110.099 14.0815 109.047 13.5374 109.047 12.3784C109.047 11.0021 110.39 10.2054 112.313 10.2054C114.237 10.2054 115.58 11.1473 115.689 12.487H119.355C119.21 9.08177 116.56 6.98081 112.35 6.98081C108.14 6.98081 105.236 9.22693 105.236 12.5235C105.236 15.2772 106.978 17.0512 110.935 17.4501L113.513 17.7039C115.074 17.8491 116.126 18.1748 116.126 19.6597C116.126 21.0005 115.146 21.9778 112.569 21.9778C110.196 21.9778 109.026 20.903 108.616 19.4625H104.65C105.045 22.7557 107.816 25.311 112.569 25.311C117.034 25.311 119.937 22.9563 119.937 19.4791C119.937 16.3997 117.904 14.8428 114.637 14.5159H114.636ZM122.492 24.8766H126.304V0.968262H122.492V24.8766ZM97.3591 9.44523H96.8151V7.4163H93.0032V24.8766H96.8151V15.7481C96.8151 12.6332 98.2574 10.8215 101.099 10.8215H103.512V6.98192H102.115C99.4788 6.98192 98.3585 7.97367 97.3591 9.44523Z" fill="#00A88E"/>
</svg>
