<svg width="256" height="256" viewBox="0 0 256 256" fill="none" xmlns="http://www.w3.org/2000/svg">
<path fill-rule="evenodd" clip-rule="evenodd" d="M225.839 56.9774L140.963 8.45194C132.916 3.84935 123.084 3.84935 115.037 8.45194L30.1614 56.9774C22.0346 61.6197 17 70.309 17 79.6729V176.287C17 185.691 22.0346 194.341 30.1614 199.023L115.037 247.548C123.084 252.151 132.916 252.151 140.963 247.548L225.839 199.023C233.965 194.38 239 185.691 239 176.287V79.6729C239 70.2694 233.965 61.6197 225.839 56.9774ZM34.1062 192.139C28.4275 188.862 24.9286 182.829 24.9286 176.287V79.6729C24.9286 73.1546 28.4402 67.0976 34.0915 63.8694L118.969 15.3425C124.579 12.134 131.42 12.1334 137.03 15.3419L221.906 63.8679C227.563 67.0994 231.071 73.1216 231.071 79.6729V176.287C231.071 182.852 227.554 188.906 221.909 192.131L137.031 240.658C131.421 243.866 124.58 243.867 118.97 240.658L34.1167 192.145C34.1132 192.143 34.1097 192.141 34.1062 192.139Z" fill="#00A88E"/>
<path d="M195.64 145.16C195.667 141.03 194.821 136.941 193.16 133.16C195.61 128.841 196.366 123.765 195.28 118.92C194.447 114.234 191.998 109.988 188.36 106.92C188.36 106.28 188.36 105.64 188.64 104.96C189.687 98.7282 188.866 92.3258 186.28 86.56C185.026 83.7984 183.235 81.3146 181.009 79.2541C178.784 77.1936 176.17 75.5977 173.32 74.56H172.96C172.378 72.6308 171.417 70.8373 170.133 69.2848C168.848 67.7324 167.266 66.4524 165.48 65.52C163.671 64.597 161.702 64.0268 159.68 63.84L159.44 63.24C158.278 60.2889 156.377 57.6858 153.92 55.68C150.747 53.1736 146.803 51.8448 142.76 51.92C140.253 52.0095 137.79 52.6008 135.516 53.6589C133.242 54.7169 131.203 56.2203 129.52 58.08C128.93 58.6648 128.369 59.2789 127.84 59.92C127.325 59.2794 126.777 58.6653 126.2 58.08C124.514 56.2238 122.475 54.7228 120.201 53.6651C117.928 52.6073 115.466 52.014 112.96 51.92C108.916 51.8381 104.97 53.1676 101.8 55.68C99.3297 57.6821 97.4152 60.2853 96.24 63.24L96 63.84C93.9794 64.0362 92.0127 64.6058 90.2 65.52C86.7897 67.2876 84.185 70.2931 82.92 73.92H82.56C79.7004 74.9395 77.0774 76.5287 74.8497 78.5913C72.6221 80.6539 70.8362 83.1471 69.6 85.92C67.0003 91.6817 66.1652 98.0842 67.2 104.32C67.2 105 67.2 105.64 67.52 106.28C63.8764 109.344 61.4267 113.592 60.6 118.28C59.5024 123.12 60.2438 128.196 62.68 132.52C61.0503 136.31 60.2197 140.395 60.24 144.52C60.4338 150.025 62.7232 155.247 66.64 159.12L67.16 159.64C67.16 160.12 66.88 160.6 66.76 161.08C66.0099 164.15 65.9362 167.346 66.544 170.447C67.1518 173.548 68.4266 176.48 70.28 179.04C71.8889 181.248 73.9541 183.083 76.3352 184.422C78.7164 185.761 81.3577 186.572 84.08 186.8H84.96C87.1146 190.563 90.2167 193.697 93.9579 195.889C97.6992 198.082 101.949 199.257 106.285 199.297C110.621 199.338 114.893 198.242 118.674 196.12C122.456 193.998 125.616 190.922 127.84 187.2C130.053 190.873 133.181 193.909 136.917 196.012C140.654 198.115 144.872 199.214 149.16 199.2C153.543 199.244 157.856 198.109 161.649 195.913C165.443 193.718 168.575 190.542 170.72 186.72H171.6C174.322 186.492 176.964 185.681 179.345 184.342C181.726 183.003 183.791 181.168 185.4 178.96C187.257 176.41 188.535 173.485 189.143 170.39C189.751 167.294 189.675 164.103 188.92 161.04C188.92 160.52 188.68 160.04 188.56 159.56L189.04 159.04C192.968 155.171 195.272 149.949 195.48 144.44M123.48 178.68C121.44 182.68 117.2 191.28 106.56 191.28C103.17 191.294 99.8496 190.317 97.0071 188.469C94.1647 186.621 91.9238 183.984 90.56 180.88L89.36 178.72H86.88C86.1472 178.757 85.4129 178.757 84.68 178.72C83.1002 178.585 81.5679 178.112 80.1874 177.332C78.8069 176.552 77.6107 175.484 76.68 174.2C75.5078 172.558 74.7043 170.682 74.3246 168.701C73.9449 166.719 73.9979 164.679 74.48 162.72C74.7134 161.725 75.0209 160.749 75.4 159.8L76.44 157.2L74.28 155.32C73.6224 154.753 72.9949 154.152 72.4 153.52C69.9214 151.099 68.4134 147.855 68.16 144.4C68.104 141.052 68.8299 137.738 70.28 134.72C70.28 134.44 70.56 134.2 70.68 133.96L72 131.68L70.44 129.56C70.1909 129.257 69.9636 128.936 69.76 128.6C68.1257 125.917 67.6086 122.7 68.32 119.64C68.8352 116.427 70.6048 113.549 73.24 111.64C73.3916 111.544 73.5524 111.464 73.72 111.4L76.4 109.96L75.76 107C75.52 105.84 75.28 104.52 75.08 103C74.2475 98.3295 74.8038 93.5174 76.68 89.16C78.2734 85.5032 81.2506 82.6267 84.96 81.16L86.6 80.76L89.24 80.36L89.96 77.32C90.1953 76.2568 90.6516 75.2551 91.2994 74.3799C91.9472 73.5046 92.7719 72.7756 93.72 72.24C95.2229 71.5085 96.8936 71.1909 98.56 71.32L101.96 71.6L102.76 68.28C102.966 67.4611 103.234 66.6589 103.56 65.88C104.211 64.1626 105.301 62.6457 106.72 61.48C108.478 60.1169 110.657 59.4096 112.88 59.48C115.827 59.7692 118.543 61.2059 120.44 63.48C121.269 64.2723 122.019 65.1431 122.68 66.08C122.907 66.3542 123.108 66.6488 123.28 66.96V67.24V103.64H116V73.16H112V92H104V86H100V96H112V104H104V108H92V98H88V112H104V120H92V128H77.16V132H96V124H104V136H92V160H84V164H96V156H104V152H96V140H104V144L112 152H116V164H104V182.84H108V168H120V152H123.76V179.2L123.48 178.68ZM115.16 143.28L111.84 139.96V111.28H140.52L143.84 114.6V143.28H115.16ZM184.92 134.04C185.078 134.266 185.212 134.507 185.32 134.76C186.812 137.765 187.553 141.086 187.48 144.44C187.231 147.905 185.706 151.154 183.2 153.56C182.615 154.202 181.986 154.803 181.32 155.36L179.2 157.24L180.24 159.84C180.606 160.79 180.9 161.766 181.12 162.76C181.619 164.715 181.684 166.756 181.311 168.739C180.937 170.722 180.135 172.6 178.96 174.24C178.026 175.52 176.828 176.585 175.449 177.365C174.069 178.144 172.539 178.62 170.96 178.76C170.241 178.797 169.52 178.797 168.8 178.76H166.32L165.08 180.92C163.741 183.993 161.539 186.611 158.742 188.457C155.944 190.303 152.672 191.297 149.32 191.32C138.64 191.32 134.4 182.8 132.28 178.52V151.32H140V163.32H148V178.16H152V159.32H144V151.32H152V147.32H160V163.32H172V159.32H164V147.32H172V143.32H152V135.32H168V127.32H178.84V123.32H164V131.32H152V119.32H164V103.32H172V99.32H160V115.32H152V111.32L144 103.32H140V95.32H154V91.32H148V73.16H144V92H136V104H132.28V67.64V67.32C132.452 67.0088 132.653 66.7142 132.88 66.44C133.574 65.517 134.322 64.6355 135.12 63.8C137.082 61.6177 139.797 60.2599 142.72 60C144.943 59.9363 147.119 60.6429 148.88 62C150.278 63.1691 151.364 64.6673 152.04 66.36C152.355 67.153 152.609 67.9686 152.8 68.8L153.6 72.12L157 71.84C158.679 71.7095 160.363 72.027 161.88 72.76C162.828 73.3001 163.65 74.0362 164.292 74.919C164.933 75.8019 165.379 76.8113 165.6 77.88L166.36 80.88L168.96 81.28C169.514 81.38 170.062 81.5136 170.6 81.68C174.313 83.1564 177.299 86.0281 178.92 89.68C180.758 94.0474 181.313 98.8484 180.52 103.52C180.52 105 180.08 106.32 179.84 107.52L179.16 110.48L181.88 111.92C182.044 111.992 182.204 112.072 182.36 112.16C183.659 113.108 184.759 114.302 185.596 115.674C186.433 117.047 186.992 118.571 187.24 120.16C187.963 123.215 187.461 126.431 185.84 129.12C185.632 129.453 185.405 129.774 185.16 130.08L183.56 132.2L184.92 134.04Z" fill="white"/>
<path d="M140 140H116V116H140V140ZM120 136H136V120H120V136Z" fill="white"/>
</svg>
