<svg width="16" height="16" viewBox="0 0 16 16" fill="none" xmlns="http://www.w3.org/2000/svg">
<path fill-rule="evenodd" clip-rule="evenodd" d="M6 2.984V2H5.91C5.597 2 5.294 2.062 5.001 2.185C4.70938 2.30725 4.44569 2.48758 4.226 2.715C4.0122 2.92988 3.84445 3.1861 3.733 3.468V3.469C3.63379 3.73668 3.56731 4.01537 3.535 4.299V4.301C3.50656 4.58773 3.49854 4.87613 3.511 5.164C3.523 5.454 3.529 5.744 3.529 6.033C3.529 6.236 3.489 6.426 3.412 6.605C3.26524 6.95433 2.99203 7.2364 2.647 7.393C2.47106 7.46984 2.28099 7.50901 2.089 7.508H2V8.492H2.09C2.285 8.492 2.47 8.532 2.646 8.613L2.647 8.614C2.825 8.692 2.976 8.798 3.102 8.932L3.104 8.934C3.234 9.064 3.337 9.219 3.411 9.399L3.412 9.401C3.49 9.581 3.529 9.769 3.529 9.967C3.529 10.257 3.523 10.547 3.511 10.836C3.499 11.132 3.507 11.421 3.535 11.706C3.568 11.989 3.634 12.265 3.732 12.531C3.838 12.804 4.003 13.056 4.226 13.285C4.449 13.515 4.708 13.692 5.001 13.815C5.294 13.938 5.597 14 5.911 14H6V13.016H5.91C5.711 13.016 5.523 12.978 5.348 12.901C5.17824 12.8217 5.02359 12.7134 4.891 12.581C4.76228 12.444 4.65779 12.2861 4.582 12.114C4.508 11.934 4.472 11.744 4.472 11.541C4.472 11.313 4.475 11.088 4.483 10.869C4.491 10.641 4.491 10.419 4.483 10.204C4.47948 9.98965 4.4611 9.77581 4.428 9.564C4.39619 9.35509 4.3398 9.15067 4.26 8.955C4.10408 8.57625 3.84918 8.2464 3.522 8C3.84918 7.7536 4.10408 7.42375 4.26 7.045C4.34 6.853 4.395 6.652 4.428 6.443C4.461 6.233 4.479 6.02 4.483 5.803C4.491 5.583 4.491 5.361 4.483 5.137C4.475 4.913 4.471 4.687 4.471 4.459C4.46926 4.17239 4.55135 3.89152 4.70717 3.65095C4.86299 3.41038 5.08573 3.22062 5.348 3.105C5.52458 3.02404 5.71675 2.98273 5.911 2.984H6ZM10 13.016V14H10.09C10.403 14 10.706 13.938 10.999 13.815C11.292 13.692 11.551 13.515 11.774 13.285C11.997 13.055 12.162 12.805 12.267 12.532C12.367 12.266 12.432 11.988 12.465 11.701V11.699C12.493 11.419 12.501 11.132 12.489 10.836C12.477 10.546 12.471 10.256 12.471 9.967C12.471 9.764 12.511 9.574 12.588 9.395V9.394C12.7348 9.04467 13.008 8.7636 13.353 8.607C13.529 8.53 13.715 8.492 13.911 8.492H14V7.508H13.91C13.715 7.508 13.53 7.468 13.354 7.387L13.353 7.386C13.1813 7.31201 13.0265 7.20381 12.898 7.068L12.896 7.066C12.7638 6.9329 12.6595 6.77483 12.589 6.601L12.588 6.599C12.5102 6.42048 12.4704 6.22774 12.471 6.033C12.471 5.743 12.477 5.453 12.489 5.164C12.5014 4.8738 12.4934 4.58308 12.465 4.294C12.4325 4.01244 12.3664 3.7348 12.268 3.469V3.468C12.1563 3.18602 11.9882 2.92979 11.774 2.715C11.5543 2.48758 11.2906 2.30725 10.999 2.185C10.7112 2.06277 10.4017 1.99985 10.089 2H10V2.984H10.09C10.29 2.984 10.476 3.022 10.652 3.099C10.826 3.181 10.978 3.287 11.109 3.419C11.236 3.553 11.339 3.709 11.418 3.886C11.492 4.066 11.528 4.256 11.528 4.459C11.528 4.687 11.525 4.911 11.517 5.131C11.509 5.359 11.509 5.581 11.517 5.796C11.521 6.018 11.539 6.231 11.572 6.436C11.605 6.65 11.661 6.852 11.74 7.045C11.8958 7.4238 12.1508 7.75367 12.478 8C12.1508 8.24633 11.8958 8.5762 11.74 8.955C11.6609 9.14849 11.6045 9.35051 11.572 9.557C11.539 9.767 11.521 9.98 11.517 10.197C11.509 10.417 11.509 10.639 11.517 10.863C11.525 11.087 11.529 11.313 11.529 11.541C11.5306 11.9278 11.3797 12.2997 11.109 12.576C10.9785 12.7106 10.8233 12.8189 10.652 12.895C10.4754 12.976 10.2833 13.0173 10.089 13.016H10Z" fill="white"/>
</svg>
