<svg width="16" height="16" viewBox="0 0 16 16" fill="none" xmlns="http://www.w3.org/2000/svg">
<path d="M11.34 9.71H12.05L14.72 7.04V6.33L13.38 5H12.68L10.86 6.81H5.86V5.56L7.72 3.71V3L5.72 1H5L1 5V5.71L3 7.71H3.71L4.85 6.56V12.35L5.35 12.85H10V13.37L11.33 14.71H12.04L14.71 12.04V11.33L13.37 10H12.67L10.81 11.85H5.81V7.85H10V8.33L11.34 9.71ZM13.03 6.06L13.66 6.69L11.66 8.69L11.03 8.06L13.03 6.06ZM13.03 11.06L13.66 11.69L11.66 13.69L11.03 13.06L13.03 11.06ZM3.35 6.65L2.06 5.35L5.35 2.06L6.65 3.35L3.35 6.65Z" fill="white"/>
</svg>
