<svg width="64" height="64" viewBox="0 0 64 64" fill="none" xmlns="http://www.w3.org/2000/svg">
<g clip-path="url(#clip0_5937_7742)">
<g clip-path="url(#clip1_5937_7742)">
<g clip-path="url(#clip2_5937_7742)">
<path fill-rule="evenodd" clip-rule="evenodd" d="M56.7475 16.7249L33.7475 3.46979C32.6659 2.84643 31.3341 2.84643 30.2525 3.46979L7.25245 16.7249C6.16817 17.3498 5.5 18.5061 5.5 19.7576V44.2466C5.5 45.4981 6.16817 46.6544 7.25245 47.2793L30.2525 60.5344C31.3341 61.1577 32.6659 61.1577 33.7475 60.5344L56.7475 47.2793C57.8318 46.6544 58.5 45.4981 58.5 44.2466V19.7576C58.5 18.5061 57.8318 17.3498 56.7475 16.7249ZM35.2454 0.870336C33.2367 -0.287345 30.7633 -0.287345 28.7546 0.870336L5.75456 14.1254C3.74088 15.2859 2.5 17.4333 2.5 19.7576V44.2466C2.5 46.5708 3.74088 48.7182 5.75456 49.8787L28.7546 63.1338C30.7633 64.2915 33.2367 64.2915 35.2454 63.1338L58.2454 49.8787C60.2591 48.7182 61.5 46.5708 61.5 44.2466V19.7576C61.5 17.4333 60.2591 15.2859 58.2454 14.1254L35.2454 0.870336Z" fill="#29CCB1"/>
</g>
<path fill-rule="evenodd" clip-rule="evenodd" d="M34.0001 35C34.5524 35 35.0001 34.5523 35.0001 34V30C35.0001 29.4477 34.5524 29 34.0001 29H30.0001C29.4478 29 29.0001 29.4477 29.0001 30V34C29.0001 34.5523 29.4478 35 30.0001 35H34.0001ZM34.0001 34H30.0001V30H34.0001V34Z" fill="black"/>
<path fill-rule="evenodd" clip-rule="evenodd" d="M48.2902 33.2899C48.7055 34.2352 48.9168 35.2574 48.9102 36.2899L48.8702 36.1099C48.8181 37.4872 48.2422 38.7927 47.2602 39.7599L47.1402 39.8899C47.1498 39.9285 47.1626 39.9671 47.1754 40.006C47.2026 40.0881 47.2302 40.1717 47.2302 40.2599C47.4189 41.0256 47.4379 41.8234 47.2859 42.5973C47.1339 43.3712 46.8145 44.1024 46.3502 44.7399C45.9479 45.2918 45.4317 45.7508 44.8364 46.0855C44.2411 46.4202 43.5807 46.623 42.9002 46.6799H42.6802C42.144 47.6355 41.3608 48.4293 40.4125 48.9782C39.4642 49.5271 38.3858 49.8109 37.2902 49.7999C36.2182 49.8033 35.1637 49.5287 34.2295 49.0029C33.2953 48.4771 32.5134 47.7181 31.9602 46.7999C31.4041 47.7305 30.6141 48.4993 29.6687 49.0299C28.7233 49.5604 27.6555 49.8343 26.5715 49.8242C25.4875 49.8141 24.425 49.5203 23.4896 48.9722C22.5543 48.4241 21.7788 47.6407 21.2402 46.6999H21.0202C20.3396 46.643 19.6793 46.4402 19.084 46.1055C18.4887 45.7708 17.9724 45.3118 17.5702 44.7599C17.1068 44.12 16.7881 43.387 16.6362 42.6117C16.4842 41.8364 16.5026 41.0374 16.6902 40.2699C16.7011 40.2263 16.7173 40.1826 16.7335 40.139C16.7618 40.0626 16.7902 39.9863 16.7902 39.9099L16.6602 39.7799C15.681 38.8117 15.1086 37.5061 15.0602 36.1299C15.0551 35.0986 15.2627 34.0773 15.6702 33.1299C15.0611 32.0489 14.8758 30.78 15.1502 29.5699C15.3569 28.3978 15.9693 27.3359 16.8802 26.5699C16.8002 26.4099 16.8002 26.2499 16.8002 26.0799C16.5415 24.521 16.7502 22.9203 17.4002 21.4799C17.7092 20.7867 18.1557 20.1634 18.7126 19.6477C19.2695 19.1321 19.9253 18.7348 20.6402 18.4799H20.7302C21.0464 17.5732 21.6976 16.8218 22.5502 16.3799C23.0033 16.1514 23.495 16.0089 24.0002 15.9599L24.0602 15.8099C24.354 15.0712 24.8326 14.4204 25.4502 13.9199C26.2427 13.2918 27.2292 12.9594 28.2402 12.9799C28.8666 13.0034 29.4821 13.1517 30.0504 13.4162C30.6188 13.6806 31.1287 14.0558 31.5502 14.5199C31.6945 14.6662 31.8313 14.8198 31.9602 14.9799C32.0924 14.8196 32.2326 14.6661 32.3802 14.5199C32.8009 14.055 33.3106 13.6791 33.8792 13.4146C34.4477 13.1501 35.0635 13.0023 35.6902 12.9799C36.7009 12.9611 37.6869 13.2933 38.4802 13.9199C39.0944 14.4213 39.5696 15.0721 39.8602 15.8099L39.9202 15.9599C40.4258 16.0066 40.9179 16.1491 41.3702 16.3799C41.8167 16.613 42.2122 16.933 42.5333 17.3211C42.8545 17.7092 43.0948 18.1576 43.2402 18.6399H43.3302C44.0426 18.8993 44.6961 19.2983 45.2525 19.8134C45.8088 20.3285 46.2568 20.9495 46.5702 21.6399C47.2167 23.0813 47.422 24.6819 47.1602 26.2399C47.0902 26.4099 47.0902 26.5699 47.0902 26.7299C47.9998 27.497 48.6119 28.5584 48.8202 29.7299C49.0915 30.9412 48.9026 32.2102 48.2902 33.2899ZM24.2519 47.1172C24.9626 47.5791 25.7926 47.8233 26.6402 47.8199C29.25 47.8199 30.5 45.5 31 44.5V38.01H30.0002L30.0002 40.9999C30.0002 41.5522 29.5525 41.9999 29.0002 41.9999H27.0002V45.2099C27.0002 45.486 26.7763 45.7099 26.5002 45.7099C26.224 45.7099 26.0002 45.486 26.0002 45.2099V41.9999C26.0002 41.4476 26.4479 40.9999 27.0002 40.9999H29.0002L29.0002 38.01H28.3911C27.9816 38.01 27.5899 37.8426 27.3069 37.5466L26.416 36.6149C26.1491 36.3358 26.0002 35.9645 26.0002 35.5783L26.0002 34.9999H24.0002V37.9999H25.5002C25.7763 37.9999 26.0002 38.2238 26.0002 38.4999C26.0002 38.776 25.7763 38.9999 25.5002 38.9999H24.0002V39.9999C24.0002 40.5522 23.5525 40.9999 23.0002 40.9999H21.5002C21.224 40.9999 21.0002 40.776 21.0002 40.4999C21.0002 40.2238 21.224 39.9999 21.5002 39.9999H23.0002V34.9999C23.0002 34.4476 23.4479 33.9999 24.0002 33.9999H26.0002V30.9999H24.0002V31.9999C24.0002 32.5522 23.5525 32.9999 23.0002 32.9999H19.7902C19.514 32.9999 19.2902 32.776 19.2902 32.4999C19.2902 32.2238 19.514 31.9999 19.7902 31.9999H23.0002V30.9999C23.0002 30.4476 23.4479 29.9999 24.0002 29.9999H26.0002V27.9999H23.0002C22.4479 27.9999 22.0002 27.5522 22.0002 26.9999V24.9999C22.0002 24.7238 22.224 24.4999 22.5002 24.4999C22.7763 24.4999 23.0002 24.7238 23.0002 24.9999V26.9999H26.0002C26.0002 26.4476 26.4479 25.9999 27.0002 25.9999H28.0002V23.9999H26.0002C25.4479 23.9999 25.0002 23.5522 25.0002 22.9999V21.9999C25.0002 21.7238 25.224 21.4999 25.5002 21.4999C25.7763 21.4999 26.0002 21.7238 26.0002 21.9999V22.9999H28.0002V18.7899C28.0002 18.5138 28.224 18.2899 28.5002 18.2899C28.7763 18.2899 29.0002 18.5138 29.0002 18.7899L29.0002 25.9999H31L31 16.8099C31 16.8099 30.3918 16.1391 30.1102 15.8699C29.6359 15.3014 28.957 14.9422 28.2202 14.8699C27.6643 14.8523 27.1197 15.0291 26.6802 15.3699C26.3253 15.6613 26.053 16.0406 25.8902 16.4699C25.8086 16.6646 25.7417 16.8652 25.6902 17.0699C25.5752 17.5471 25.1294 17.8702 24.6402 17.8299C24.2236 17.7976 23.8059 17.877 23.4302 18.0599C23.1932 18.1938 22.987 18.3761 22.825 18.5949C22.6631 18.8137 22.549 19.0641 22.4902 19.3299L22.464 19.4403C22.3711 19.8328 22.049 20.1295 21.6502 20.1899L21.2402 20.2899C20.3128 20.6566 19.5685 21.3757 19.1702 22.2899C18.7011 23.3792 18.562 24.5823 18.7702 25.7499C18.8202 26.1299 18.8802 26.4599 18.9402 26.7499C19.0344 27.1856 18.8297 27.6352 18.437 27.8462L18.4302 27.8499C18.3883 27.8658 18.3481 27.8859 18.3102 27.9099C17.6514 28.3872 17.209 29.1066 17.0802 29.9099C16.9023 30.6749 17.0316 31.4791 17.4402 32.1499C17.4911 32.2338 17.5479 32.314 17.6102 32.3899C17.8458 32.7101 17.8694 33.1458 17.6702 33.4899C17.6599 33.5104 17.6451 33.5308 17.6299 33.5517C17.6006 33.592 17.5702 33.6338 17.5702 33.6799C17.2077 34.4344 17.0262 35.263 17.0402 36.0999C17.1035 36.9638 17.4805 37.7747 18.1002 38.3799C18.2489 38.538 18.4058 38.6882 18.5702 38.8299L18.5821 38.8403C18.8983 39.1155 19.0059 39.5607 18.8502 39.9499C18.7554 40.1872 18.6785 40.4312 18.6202 40.6799C18.4996 41.1697 18.4864 41.6797 18.5813 42.175C18.6762 42.6704 18.8771 43.1394 19.1702 43.5499C19.4028 43.8708 19.7019 44.1379 20.047 44.3329C20.3921 44.5278 20.7752 44.6462 21.1702 44.6799C21.3534 44.6892 21.537 44.6892 21.7202 44.6799H21.7518C22.1149 44.6799 22.4496 44.8768 22.6259 45.1943L22.6402 45.2199C22.9811 45.9958 23.5413 46.6553 24.2519 47.1172ZM28.8535 35.8535C28.9473 35.9473 29.0745 36 29.2071 36H36.0002L36 29.2071C36 29.0745 35.9473 28.9473 35.8536 28.8536L35.1464 28.1464C35.0527 28.0527 34.9255 28 34.7929 28L28.0002 27.9999V34.7928C28.0002 34.9254 28.0528 35.0526 28.1466 35.1463L28.8535 35.8535ZM46.3302 33.6899C46.3031 33.6266 46.2696 33.5663 46.2302 33.5099C46.0285 33.2371 46.0304 32.8641 46.2348 32.5933L46.2902 32.5199C46.3515 32.4433 46.4083 32.3632 46.4602 32.2799C46.8653 31.6078 46.991 30.8036 46.8102 30.0399C46.7481 29.6427 46.6085 29.2617 46.3991 28.9185C46.1898 28.5753 45.9149 28.2768 45.5902 28.0399C45.5512 28.0179 45.5112 27.9979 45.4702 27.9799L45.4612 27.9752C45.0655 27.7656 44.8599 27.3163 44.9602 26.8799C44.976 26.8007 44.9953 26.7194 45.0152 26.6358C45.0706 26.4029 45.1302 26.1522 45.1302 25.8799C45.3285 24.712 45.1897 23.5117 44.7302 22.4199C44.325 21.5069 43.5783 20.789 42.6502 20.4199C42.5156 20.3783 42.3787 20.3449 42.2402 20.3199C41.8461 20.2593 41.5266 19.9688 41.4287 19.5824L41.4002 19.4699C41.345 19.2027 41.2335 18.9504 41.0731 18.7297C40.9128 18.5089 40.7072 18.3249 40.4702 18.1899C40.091 18.0066 39.67 17.9273 39.2502 17.9599C38.761 18.0002 38.3152 17.6771 38.2002 17.1999C38.1523 16.9921 38.0888 16.7881 38.0102 16.5899C37.8412 16.1667 37.5697 15.7922 37.2202 15.4999C36.7799 15.1606 36.2358 14.984 35.6802 14.9999C34.9495 15.0649 34.2706 15.4043 33.7802 15.9499C33.4927 16.251 33 16.9099 33 16.9099V25.9999H34.0002V23.9999C34.0002 23.4476 34.4479 22.9999 35.0002 22.9999H36.0002V18.7899C36.0002 18.5138 36.224 18.2899 36.5002 18.2899C36.7763 18.2899 37.0002 18.5138 37.0002 18.7899L37.0002 22.9999H38.0002C38.2763 22.9999 38.5002 23.2238 38.5002 23.4999C38.5002 23.776 38.2763 23.9999 38.0002 23.9999H35.0002V25.9999H35.4175C35.7923 25.9999 36.1535 26.1402 36.4301 26.3932L37.5128 27.3839C37.8233 27.6681 38.0002 28.0696 38.0002 28.4906L38.0002 29H40.0002L40.0002 26C40.0002 25.4477 40.4479 25 41.0002 25H42.5002C42.7763 25 43.0002 25.2239 43.0002 25.5C43.0002 25.7761 42.7763 26 42.5002 26H41.0002V29C41.0002 29.5523 40.5525 30 40.0002 30H38.0002V33.0499H41.0002V32.0499C41.0002 31.4976 41.4479 31.0499 42.0002 31.0499H44.2102C44.4863 31.0499 44.7102 31.2738 44.7102 31.5499C44.7102 31.826 44.4863 32.0499 44.2102 32.0499H42.0002V33.0499C42.0002 33.6022 41.5525 34.0499 41.0002 34.0499H38.0002V36.01H42.5002C42.7763 36.01 43.0002 36.2339 43.0002 36.51C43.0002 36.7861 42.7763 37.01 42.5002 37.01H41.0002L41.0002 39.9999H42.5002C42.7763 39.9999 43.0002 40.2238 43.0002 40.4999C43.0002 40.776 42.7763 40.9999 42.5002 40.9999H41.0002C40.4479 40.9999 40.0002 40.5522 40.0002 39.9999L40.0002 37.01H38.0002C38.0002 37.5623 37.5525 38.01 37.0002 38.01H36.0002V39.9999H37.0002C37.5525 39.9999 38.0002 40.4476 38.0002 40.9999V44.0399C38.0002 44.316 37.7763 44.5399 37.5002 44.5399C37.224 44.5399 37.0002 44.316 37.0002 44.0399L37.0002 40.9999H36.0002C35.4479 40.9999 35.0002 40.5522 35.0002 39.9999V38.01H33V44.5399C33.0093 44.5578 33.0189 44.5763 33.0287 44.5951C33.5439 45.5863 34.7101 47.8299 37.3302 47.8299C38.1681 47.8242 38.9863 47.5755 39.6856 47.114C40.385 46.6525 40.9354 45.998 41.2702 45.2299L41.2919 45.192C41.4702 44.8814 41.801 44.6899 42.1592 44.6899H42.2002C42.3801 44.6992 42.5603 44.6992 42.7402 44.6899C43.1348 44.6549 43.5174 44.536 43.8623 44.3411C44.2073 44.1462 44.5066 43.8799 44.7402 43.5599C45.034 43.1498 45.2345 42.6804 45.3278 42.1847C45.4211 41.6889 45.4048 41.1787 45.2802 40.6899C45.2253 40.4414 45.1517 40.1974 45.0602 39.9599C44.9042 39.57 45.0097 39.1241 45.324 38.8454L45.3302 38.8399C45.4968 38.7006 45.6538 38.5503 45.8002 38.3899C46.4266 37.7884 46.8078 36.9761 46.8702 36.1099C46.8883 35.2715 46.703 34.4411 46.3302 33.6899Z" fill="black"/>
</g>
</g>
<defs>
<clipPath id="clip0_5937_7742">
<rect width="64" height="64" fill="white"/>
</clipPath>
<clipPath id="clip1_5937_7742">
<rect width="64" height="64" fill="white"/>
</clipPath>
<clipPath id="clip2_5937_7742">
<rect width="64" height="64" fill="white"/>
</clipPath>
</defs>
</svg>
