<svg width="96" height="96" viewBox="0 0 96 96" fill="none" xmlns="http://www.w3.org/2000/svg">
<path fill-rule="evenodd" clip-rule="evenodd" d="M85.02 21.15L52.905 2.805C49.86 1.065 46.14 1.065 43.095 2.805L10.98 21.15C7.905 22.905 6 26.19 6 29.73V66.255C6 69.81 7.905 73.08 10.98 74.85L43.095 93.195C46.14 94.935 49.86 94.935 52.905 93.195L85.02 74.85C88.095 73.095 90 69.81 90 66.255V29.73C90 26.175 88.095 22.905 85.02 21.15ZM12.4726 72.2477C10.3239 71.009 9 68.7282 9 66.255V29.73C9 27.2658 10.3287 24.9759 12.467 23.7555L44.583 5.40995C46.7057 4.19698 49.2939 4.19676 51.4166 5.40973L83.532 23.755C85.6725 24.9766 87 27.2533 87 29.73V66.255C87 68.7368 85.6691 71.0253 83.533 72.2445L51.417 90.59C49.2943 91.803 46.7061 91.8032 44.5834 90.5903L12.4766 72.25C12.4753 72.2492 12.4739 72.2484 12.4726 72.2477Z" fill="#00A88E"/>
</svg>
