<svg width="84" height="94" viewBox="0 0 84 94" fill="none" xmlns="http://www.w3.org/2000/svg">
<path d="M67.3648 53.435C67.3747 51.8863 67.0578 50.3529 66.4348 48.935C67.3535 47.3154 67.6368 45.412 67.2298 43.595C66.9173 41.8378 65.9991 40.2456 64.6348 39.095C64.6348 38.855 64.6348 38.615 64.7398 38.36C65.1325 36.0231 64.8246 33.6222 63.8548 31.46C63.3847 30.4244 62.7127 29.493 61.8782 28.7203C61.0437 27.9476 60.0634 27.3491 58.9948 26.96H58.8598C58.6417 26.2365 58.2812 25.564 57.7995 24.9818C57.3178 24.3997 56.7246 23.9196 56.0548 23.57C55.3763 23.2239 54.6382 23.0101 53.8798 22.94L53.7898 22.715C53.3539 21.6083 52.6411 20.6322 51.7198 19.88C50.5299 18.9401 49.0509 18.4418 47.5348 18.47C46.5948 18.5036 45.6711 18.7253 44.8183 19.1221C43.9655 19.5188 43.2009 20.0826 42.5698 20.78C42.3483 20.9993 42.1381 21.2296 41.9398 21.47C41.7465 21.2298 41.5413 20.9995 41.3248 20.78C40.6926 20.0839 39.9278 19.5211 39.0752 19.1244C38.2226 18.7277 37.2994 18.5052 36.3598 18.47C34.8433 18.4393 33.3635 18.9379 32.1748 19.88C31.2484 20.6308 30.5304 21.607 30.0898 22.715L29.9998 22.94C29.242 23.0136 28.5045 23.2272 27.8248 23.57C26.5459 24.2329 25.5691 25.3599 25.0948 26.72H24.9598C23.8874 27.1023 22.9038 27.6982 22.0684 28.4717C21.2331 29.2452 20.5633 30.1802 20.0998 31.22C19.1249 33.3806 18.8117 35.7816 19.1998 38.12C19.1998 38.375 19.1998 38.615 19.3198 38.855C17.9534 40.0039 17.0348 41.5969 16.7248 43.355C16.3132 45.1701 16.5912 47.0734 17.5048 48.695C16.8936 50.1161 16.5821 51.648 16.5898 53.195C16.6624 55.2593 17.521 57.2178 18.9898 58.67L19.1848 58.865C19.1848 59.045 19.0798 59.225 19.0348 59.405C18.7535 60.5562 18.7258 61.7548 18.9538 62.9177C19.1817 64.0807 19.6597 65.1801 20.3548 66.14C20.9581 66.9679 21.7325 67.6563 22.6255 68.1584C23.5184 68.6605 24.5089 68.9646 25.5298 69.05H25.8598C26.6677 70.4612 27.831 71.6363 29.234 72.4585C30.637 73.2807 32.2307 73.7212 33.8568 73.7364C35.4828 73.7516 37.0845 73.3408 38.5026 72.5449C39.9206 71.7491 41.1056 70.5959 41.9398 69.2C42.7697 70.5772 43.9425 71.7158 45.3438 72.5045C46.745 73.2932 48.3268 73.7051 49.9348 73.7C51.5782 73.7165 53.1959 73.2908 54.6183 72.4674C56.0407 71.6441 57.2156 70.4534 58.0198 69.02H58.3498C59.3706 68.9346 60.3611 68.6305 61.2541 68.1284C62.147 67.6263 62.9214 66.9379 63.5248 66.11C64.2213 65.1538 64.7004 64.0569 64.9284 62.8961C65.1564 61.7353 65.1279 60.5386 64.8448 59.39C64.8448 59.195 64.7548 59.015 64.7098 58.835L64.8898 58.64C66.3628 57.1893 67.2266 55.231 67.3048 53.165M40.3048 66.005C39.5398 67.505 37.9498 70.73 33.9598 70.73C32.6885 70.7351 31.4434 70.3688 30.3774 69.6759C29.3115 68.983 28.4712 67.9939 27.9598 66.83L27.5098 66.02H26.5798C26.3049 66.0339 26.0296 66.0339 25.7548 66.02C25.1623 65.9695 24.5877 65.7919 24.07 65.4994C23.5524 65.2069 23.1038 64.8064 22.7548 64.325C22.3152 63.7092 22.0139 63.0058 21.8715 62.2627C21.7291 61.5197 21.749 60.7546 21.9298 60.02C22.0173 59.6469 22.1326 59.2809 22.2748 58.925L22.6648 57.95L21.8548 57.245C21.6082 57.0324 21.3728 56.8071 21.1498 56.57C20.2203 55.6622 19.6548 54.4458 19.5598 53.15C19.5388 51.8946 19.811 50.6517 20.3548 49.52C20.3548 49.415 20.4598 49.325 20.5048 49.235L20.9998 48.38L20.4148 47.585C20.3213 47.4712 20.2361 47.3509 20.1598 47.225C19.5469 46.2189 19.353 45.0125 19.6198 43.865C19.813 42.66 20.4766 41.581 21.4648 40.865C21.5216 40.8291 21.5819 40.7989 21.6448 40.775L22.6498 40.235L22.4098 39.125C22.3198 38.69 22.2298 38.195 22.1548 37.625C21.8426 35.8736 22.0512 34.069 22.7548 32.435C23.3523 31.0637 24.4687 29.985 25.8598 29.435L26.4748 29.285L27.4648 29.135L27.7348 27.995C27.823 27.5963 27.9941 27.2207 28.237 26.8924C28.48 26.5642 28.7892 26.2908 29.1448 26.09C29.7083 25.8157 30.3349 25.6966 30.9598 25.745L32.2348 25.85L32.5348 24.605C32.6121 24.2979 32.7124 23.9971 32.8348 23.705C33.079 23.061 33.4875 22.4921 34.0198 22.055C34.6791 21.5438 35.496 21.2786 36.3298 21.305C37.435 21.4134 38.4533 21.9522 39.1648 22.805C39.4756 23.1021 39.7569 23.4286 40.0048 23.78C40.0898 23.8828 40.1651 23.9933 40.2298 24.11V24.215V37.865H37.4998V26.435H35.9998V33.5H32.9998V31.25H31.4998V35H35.9998V38H32.9998V39.5H28.4998V35.75H26.9998V41H32.9998V44H28.4998V47H22.9348V48.5H29.9998V45.5H32.9998V50H28.4998V59H25.4998V60.5H29.9998V57.5H32.9998V56H29.9998V51.5H32.9998V53L35.9998 56H37.4998V60.5H32.9998V67.565H34.4998V62H38.9998V56H40.4098V66.2L40.3048 66.005ZM37.1848 52.73L35.9398 51.485V40.73H46.6948L47.9398 41.975V52.73H37.1848ZM63.3448 49.265C63.4039 49.3496 63.4542 49.4401 63.4948 49.535C64.0541 50.6618 64.332 51.9073 64.3048 53.165C64.2113 54.4643 63.6394 55.6828 62.6998 56.585C62.4802 56.8256 62.2447 57.0511 61.9948 57.26L61.1998 57.965L61.5898 58.94C61.7271 59.2962 61.8374 59.6622 61.9198 60.035C62.1068 60.7682 62.1311 61.5335 61.9912 62.2771C61.8513 63.0208 61.5505 63.7249 61.1098 64.34C60.7594 64.82 60.3104 65.2195 59.793 65.5119C59.2756 65.8042 58.7017 65.9825 58.1098 66.035C57.84 66.0489 57.5696 66.0489 57.2998 66.035H56.3698L55.9048 66.845C55.4026 67.9972 54.577 68.9789 53.528 69.6712C52.4789 70.3634 51.2516 70.7365 49.9948 70.745C45.9898 70.745 44.3998 67.55 43.6048 65.945V55.745H46.4998V60.245H49.4998V65.81H50.9998V58.745H47.9998V55.745H50.9998V54.245H53.9998V60.245H58.4998V58.745H55.4998V54.245H58.4998V52.745H50.9998V49.745H56.9998V46.745H61.0648V45.245H55.4998V48.245H50.9998V43.745H55.4998V37.745H58.4998V36.245H53.9998V42.245H50.9998V40.745L47.9998 37.745H46.4998V34.745H51.7498V33.245H49.4998V26.435H47.9998V33.5H44.9998V38H43.6048V24.365V24.245C43.6694 24.1283 43.7447 24.0178 43.8298 23.915C44.0902 23.5689 44.3707 23.2383 44.6698 22.925C45.4054 22.1066 46.4237 21.5974 47.5198 21.5C48.3532 21.4761 49.1693 21.7411 49.8298 22.25C50.3541 22.6884 50.7613 23.2502 51.0148 23.885C51.1328 24.1824 51.228 24.4882 51.2998 24.8L51.5998 26.045L52.8748 25.94C53.5045 25.8911 54.136 26.0101 54.7048 26.285C55.0604 26.4875 55.3687 26.7636 55.6092 27.0946C55.8498 27.4257 56.017 27.8042 56.0998 28.205L56.3848 29.33L57.3598 29.48C57.5676 29.5175 57.773 29.5676 57.9748 29.63C59.367 30.1836 60.487 31.2606 61.0948 32.63C61.7841 34.2678 61.9923 36.0681 61.6948 37.82C61.6948 38.375 61.5298 38.87 61.4398 39.32L61.1848 40.43L62.2048 40.97C62.2662 40.9969 62.3263 41.027 62.3848 41.06C62.8719 41.4153 63.2842 41.8632 63.5982 42.3779C63.9122 42.8927 64.1217 43.4643 64.2148 44.06C64.486 45.2056 64.2975 46.4118 63.6898 47.42C63.6119 47.5449 63.5268 47.6651 63.4348 47.78L62.8348 48.575L63.3448 49.265Z" fill="#575756"/>
<path d="M46.5 51.5H37.5V42.5H46.5V51.5ZM39 50H45V44H39V50Z" fill="#575756"/>
</svg>
